<svg width="16" height="16" viewBox="0 0 16 16" fill="currentColor" xmlns="http://www.w3.org/2000/svg">
<path fill-rule="evenodd" clip-rule="evenodd" d="M14 8C14 11.3137 11.3137 14 8 14C6.67794 14 5.45575 13.5724 4.46418 12.848L7.50894 10.3107L6.30108 9.90693L8.09931 9.00062H11.2852L12.6758 6.71614L9.83758 4.73953V3.2793L3.90983 5.50062H2.54376C3.49163 3.43476 5.57826 2 8 2C11.3137 2 14 4.68629 14 8ZM2.22266 6.37498C2.07759 6.8918 2 7.43684 2 8C2 9.62709 2.64766 11.1029 3.69925 12.1837L5.49106 10.6905L3.70741 10.0943L7.86156 8.00062H10.7232L11.3327 6.99938L8.83758 5.26171V4.72194L4.09104 6.50062H2.22266V6.37498ZM15 8C15 11.866 11.866 15 8 15C4.13401 15 1 11.866 1 8C1 4.13401 4.13401 1 8 1C11.866 1 15 4.13401 15 8Z" fill="currentColor"/>
</svg>
